<mxfile host="app.diagrams.net" agent="Mozilla/5.0 (X11; Linux x86_64) AppleWebKit/537.36 (KHTML, like Gecko) Chrome/131.0.0.0 Safari/537.36" version="25.0.3">
  <diagram name="Page-1" id="fFAFMnZEtM6wgYu8Kcna">
    <mxGraphModel dx="1034" dy="520" grid="1" gridSize="10" guides="1" tooltips="1" connect="1" arrows="1" fold="1" page="1" pageScale="1" pageWidth="827" pageHeight="1169" math="0" shadow="0">
      <root>
        <mxCell id="0" />
        <mxCell id="1" parent="0" />
        <mxCell id="99QOPK_fGzL6YQzvzu0L-1" value="" style="rounded=0;whiteSpace=wrap;html=1;" vertex="1" parent="1">
          <mxGeometry x="110" y="170" width="40" height="40" as="geometry" />
        </mxCell>
        <mxCell id="99QOPK_fGzL6YQzvzu0L-2" value="" style="rounded=0;whiteSpace=wrap;html=1;" vertex="1" parent="1">
          <mxGeometry x="150" y="170" width="40" height="40" as="geometry" />
        </mxCell>
        <mxCell id="99QOPK_fGzL6YQzvzu0L-3" value="" style="rounded=0;whiteSpace=wrap;html=1;" vertex="1" parent="1">
          <mxGeometry x="190" y="170" width="40" height="40" as="geometry" />
        </mxCell>
        <mxCell id="99QOPK_fGzL6YQzvzu0L-4" value="" style="rounded=0;whiteSpace=wrap;html=1;" vertex="1" parent="1">
          <mxGeometry x="230" y="170" width="40" height="40" as="geometry" />
        </mxCell>
        <mxCell id="99QOPK_fGzL6YQzvzu0L-6" value="" style="rounded=0;whiteSpace=wrap;html=1;" vertex="1" parent="1">
          <mxGeometry x="270" y="170" width="40" height="40" as="geometry" />
        </mxCell>
        <mxCell id="99QOPK_fGzL6YQzvzu0L-7" value="" style="rounded=0;whiteSpace=wrap;html=1;" vertex="1" parent="1">
          <mxGeometry x="310" y="170" width="40" height="40" as="geometry" />
        </mxCell>
        <mxCell id="99QOPK_fGzL6YQzvzu0L-8" value="" style="rounded=0;whiteSpace=wrap;html=1;" vertex="1" parent="1">
          <mxGeometry x="350" y="170" width="40" height="40" as="geometry" />
        </mxCell>
        <mxCell id="99QOPK_fGzL6YQzvzu0L-9" value="" style="rounded=0;whiteSpace=wrap;html=1;" vertex="1" parent="1">
          <mxGeometry x="390" y="170" width="40" height="40" as="geometry" />
        </mxCell>
        <mxCell id="99QOPK_fGzL6YQzvzu0L-10" value="" style="rounded=0;whiteSpace=wrap;html=1;" vertex="1" parent="1">
          <mxGeometry x="430" y="170" width="40" height="40" as="geometry" />
        </mxCell>
        <mxCell id="99QOPK_fGzL6YQzvzu0L-11" value="" style="rounded=0;whiteSpace=wrap;html=1;" vertex="1" parent="1">
          <mxGeometry x="470" y="170" width="40" height="40" as="geometry" />
        </mxCell>
        <mxCell id="99QOPK_fGzL6YQzvzu0L-12" value="" style="rounded=0;whiteSpace=wrap;html=1;" vertex="1" parent="1">
          <mxGeometry x="510" y="170" width="40" height="40" as="geometry" />
        </mxCell>
        <mxCell id="99QOPK_fGzL6YQzvzu0L-13" value="" style="rounded=0;whiteSpace=wrap;html=1;" vertex="1" parent="1">
          <mxGeometry x="550" y="170" width="40" height="40" as="geometry" />
        </mxCell>
        <mxCell id="99QOPK_fGzL6YQzvzu0L-14" value="" style="rounded=0;whiteSpace=wrap;html=1;" vertex="1" parent="1">
          <mxGeometry x="590" y="170" width="40" height="40" as="geometry" />
        </mxCell>
        <mxCell id="99QOPK_fGzL6YQzvzu0L-15" value="" style="rounded=0;whiteSpace=wrap;html=1;" vertex="1" parent="1">
          <mxGeometry x="630" y="170" width="40" height="40" as="geometry" />
        </mxCell>
        <mxCell id="99QOPK_fGzL6YQzvzu0L-16" value="" style="rounded=0;whiteSpace=wrap;html=1;" vertex="1" parent="1">
          <mxGeometry x="670" y="170" width="40" height="40" as="geometry" />
        </mxCell>
        <mxCell id="99QOPK_fGzL6YQzvzu0L-17" value="" style="rounded=0;whiteSpace=wrap;html=1;" vertex="1" parent="1">
          <mxGeometry x="710" y="170" width="40" height="40" as="geometry" />
        </mxCell>
        <mxCell id="99QOPK_fGzL6YQzvzu0L-18" value="" style="rounded=0;whiteSpace=wrap;html=1;" vertex="1" parent="1">
          <mxGeometry x="110" y="210" width="40" height="40" as="geometry" />
        </mxCell>
        <mxCell id="99QOPK_fGzL6YQzvzu0L-19" value="" style="rounded=0;whiteSpace=wrap;html=1;" vertex="1" parent="1">
          <mxGeometry x="150" y="210" width="40" height="40" as="geometry" />
        </mxCell>
        <mxCell id="99QOPK_fGzL6YQzvzu0L-20" value="" style="rounded=0;whiteSpace=wrap;html=1;" vertex="1" parent="1">
          <mxGeometry x="190" y="210" width="40" height="40" as="geometry" />
        </mxCell>
        <mxCell id="99QOPK_fGzL6YQzvzu0L-21" value="" style="rounded=0;whiteSpace=wrap;html=1;" vertex="1" parent="1">
          <mxGeometry x="230" y="210" width="40" height="40" as="geometry" />
        </mxCell>
        <mxCell id="99QOPK_fGzL6YQzvzu0L-22" value="" style="rounded=0;whiteSpace=wrap;html=1;" vertex="1" parent="1">
          <mxGeometry x="270" y="210" width="40" height="40" as="geometry" />
        </mxCell>
        <mxCell id="99QOPK_fGzL6YQzvzu0L-23" value="" style="rounded=0;whiteSpace=wrap;html=1;" vertex="1" parent="1">
          <mxGeometry x="310" y="210" width="40" height="40" as="geometry" />
        </mxCell>
        <mxCell id="99QOPK_fGzL6YQzvzu0L-24" value="" style="rounded=0;whiteSpace=wrap;html=1;" vertex="1" parent="1">
          <mxGeometry x="350" y="210" width="40" height="40" as="geometry" />
        </mxCell>
        <mxCell id="99QOPK_fGzL6YQzvzu0L-25" value="" style="rounded=0;whiteSpace=wrap;html=1;" vertex="1" parent="1">
          <mxGeometry x="390" y="210" width="40" height="40" as="geometry" />
        </mxCell>
        <mxCell id="99QOPK_fGzL6YQzvzu0L-26" value="" style="rounded=0;whiteSpace=wrap;html=1;" vertex="1" parent="1">
          <mxGeometry x="430" y="210" width="40" height="40" as="geometry" />
        </mxCell>
        <mxCell id="99QOPK_fGzL6YQzvzu0L-27" value="" style="rounded=0;whiteSpace=wrap;html=1;" vertex="1" parent="1">
          <mxGeometry x="470" y="210" width="40" height="40" as="geometry" />
        </mxCell>
        <mxCell id="99QOPK_fGzL6YQzvzu0L-28" value="" style="rounded=0;whiteSpace=wrap;html=1;" vertex="1" parent="1">
          <mxGeometry x="510" y="210" width="40" height="40" as="geometry" />
        </mxCell>
        <mxCell id="99QOPK_fGzL6YQzvzu0L-29" value="" style="rounded=0;whiteSpace=wrap;html=1;" vertex="1" parent="1">
          <mxGeometry x="550" y="210" width="40" height="40" as="geometry" />
        </mxCell>
        <mxCell id="99QOPK_fGzL6YQzvzu0L-30" value="" style="rounded=0;whiteSpace=wrap;html=1;" vertex="1" parent="1">
          <mxGeometry x="590" y="210" width="40" height="40" as="geometry" />
        </mxCell>
        <mxCell id="99QOPK_fGzL6YQzvzu0L-31" value="" style="rounded=0;whiteSpace=wrap;html=1;" vertex="1" parent="1">
          <mxGeometry x="630" y="210" width="40" height="40" as="geometry" />
        </mxCell>
        <mxCell id="99QOPK_fGzL6YQzvzu0L-32" value="" style="rounded=0;whiteSpace=wrap;html=1;" vertex="1" parent="1">
          <mxGeometry x="670" y="210" width="40" height="40" as="geometry" />
        </mxCell>
        <mxCell id="99QOPK_fGzL6YQzvzu0L-33" value="" style="rounded=0;whiteSpace=wrap;html=1;" vertex="1" parent="1">
          <mxGeometry x="710" y="210" width="40" height="40" as="geometry" />
        </mxCell>
        <mxCell id="99QOPK_fGzL6YQzvzu0L-34" value="" style="rounded=0;whiteSpace=wrap;html=1;" vertex="1" parent="1">
          <mxGeometry x="110" y="250" width="40" height="40" as="geometry" />
        </mxCell>
        <mxCell id="99QOPK_fGzL6YQzvzu0L-35" value="" style="rounded=0;whiteSpace=wrap;html=1;" vertex="1" parent="1">
          <mxGeometry x="150" y="250" width="40" height="40" as="geometry" />
        </mxCell>
        <mxCell id="99QOPK_fGzL6YQzvzu0L-36" value="" style="rounded=0;whiteSpace=wrap;html=1;" vertex="1" parent="1">
          <mxGeometry x="190" y="250" width="40" height="40" as="geometry" />
        </mxCell>
        <mxCell id="99QOPK_fGzL6YQzvzu0L-37" value="" style="rounded=0;whiteSpace=wrap;html=1;" vertex="1" parent="1">
          <mxGeometry x="230" y="250" width="40" height="40" as="geometry" />
        </mxCell>
        <mxCell id="99QOPK_fGzL6YQzvzu0L-38" value="" style="rounded=0;whiteSpace=wrap;html=1;" vertex="1" parent="1">
          <mxGeometry x="270" y="250" width="40" height="40" as="geometry" />
        </mxCell>
        <mxCell id="99QOPK_fGzL6YQzvzu0L-39" value="" style="rounded=0;whiteSpace=wrap;html=1;" vertex="1" parent="1">
          <mxGeometry x="310" y="250" width="40" height="40" as="geometry" />
        </mxCell>
        <mxCell id="99QOPK_fGzL6YQzvzu0L-40" value="" style="rounded=0;whiteSpace=wrap;html=1;" vertex="1" parent="1">
          <mxGeometry x="350" y="250" width="40" height="40" as="geometry" />
        </mxCell>
        <mxCell id="99QOPK_fGzL6YQzvzu0L-41" value="" style="rounded=0;whiteSpace=wrap;html=1;" vertex="1" parent="1">
          <mxGeometry x="390" y="250" width="40" height="40" as="geometry" />
        </mxCell>
        <mxCell id="99QOPK_fGzL6YQzvzu0L-42" value="" style="rounded=0;whiteSpace=wrap;html=1;" vertex="1" parent="1">
          <mxGeometry x="430" y="250" width="40" height="40" as="geometry" />
        </mxCell>
        <mxCell id="99QOPK_fGzL6YQzvzu0L-43" value="" style="rounded=0;whiteSpace=wrap;html=1;" vertex="1" parent="1">
          <mxGeometry x="470" y="250" width="40" height="40" as="geometry" />
        </mxCell>
        <mxCell id="99QOPK_fGzL6YQzvzu0L-44" value="" style="rounded=0;whiteSpace=wrap;html=1;" vertex="1" parent="1">
          <mxGeometry x="510" y="250" width="40" height="40" as="geometry" />
        </mxCell>
        <mxCell id="99QOPK_fGzL6YQzvzu0L-45" value="" style="rounded=0;whiteSpace=wrap;html=1;" vertex="1" parent="1">
          <mxGeometry x="550" y="250" width="40" height="40" as="geometry" />
        </mxCell>
        <mxCell id="99QOPK_fGzL6YQzvzu0L-46" value="" style="rounded=0;whiteSpace=wrap;html=1;" vertex="1" parent="1">
          <mxGeometry x="590" y="250" width="40" height="40" as="geometry" />
        </mxCell>
        <mxCell id="99QOPK_fGzL6YQzvzu0L-47" value="" style="rounded=0;whiteSpace=wrap;html=1;" vertex="1" parent="1">
          <mxGeometry x="630" y="250" width="40" height="40" as="geometry" />
        </mxCell>
        <mxCell id="99QOPK_fGzL6YQzvzu0L-48" value="" style="rounded=0;whiteSpace=wrap;html=1;" vertex="1" parent="1">
          <mxGeometry x="670" y="250" width="40" height="40" as="geometry" />
        </mxCell>
        <mxCell id="99QOPK_fGzL6YQzvzu0L-49" value="" style="rounded=0;whiteSpace=wrap;html=1;" vertex="1" parent="1">
          <mxGeometry x="710" y="250" width="40" height="40" as="geometry" />
        </mxCell>
        <mxCell id="99QOPK_fGzL6YQzvzu0L-50" value="" style="rounded=0;whiteSpace=wrap;html=1;" vertex="1" parent="1">
          <mxGeometry x="110" y="290" width="40" height="40" as="geometry" />
        </mxCell>
        <mxCell id="99QOPK_fGzL6YQzvzu0L-51" value="" style="rounded=0;whiteSpace=wrap;html=1;" vertex="1" parent="1">
          <mxGeometry x="150" y="290" width="40" height="40" as="geometry" />
        </mxCell>
        <mxCell id="99QOPK_fGzL6YQzvzu0L-52" value="" style="rounded=0;whiteSpace=wrap;html=1;" vertex="1" parent="1">
          <mxGeometry x="190" y="290" width="40" height="40" as="geometry" />
        </mxCell>
        <mxCell id="99QOPK_fGzL6YQzvzu0L-53" value="" style="rounded=0;whiteSpace=wrap;html=1;" vertex="1" parent="1">
          <mxGeometry x="230" y="290" width="40" height="40" as="geometry" />
        </mxCell>
        <mxCell id="99QOPK_fGzL6YQzvzu0L-54" value="" style="rounded=0;whiteSpace=wrap;html=1;" vertex="1" parent="1">
          <mxGeometry x="270" y="290" width="40" height="40" as="geometry" />
        </mxCell>
        <mxCell id="99QOPK_fGzL6YQzvzu0L-55" value="" style="rounded=0;whiteSpace=wrap;html=1;" vertex="1" parent="1">
          <mxGeometry x="310" y="290" width="40" height="40" as="geometry" />
        </mxCell>
        <mxCell id="99QOPK_fGzL6YQzvzu0L-56" value="" style="rounded=0;whiteSpace=wrap;html=1;" vertex="1" parent="1">
          <mxGeometry x="350" y="290" width="40" height="40" as="geometry" />
        </mxCell>
        <mxCell id="99QOPK_fGzL6YQzvzu0L-57" value="" style="rounded=0;whiteSpace=wrap;html=1;" vertex="1" parent="1">
          <mxGeometry x="390" y="290" width="40" height="40" as="geometry" />
        </mxCell>
        <mxCell id="99QOPK_fGzL6YQzvzu0L-58" value="" style="rounded=0;whiteSpace=wrap;html=1;" vertex="1" parent="1">
          <mxGeometry x="430" y="290" width="40" height="40" as="geometry" />
        </mxCell>
        <mxCell id="99QOPK_fGzL6YQzvzu0L-59" value="" style="rounded=0;whiteSpace=wrap;html=1;" vertex="1" parent="1">
          <mxGeometry x="470" y="290" width="40" height="40" as="geometry" />
        </mxCell>
        <mxCell id="99QOPK_fGzL6YQzvzu0L-60" value="" style="rounded=0;whiteSpace=wrap;html=1;" vertex="1" parent="1">
          <mxGeometry x="510" y="290" width="40" height="40" as="geometry" />
        </mxCell>
        <mxCell id="99QOPK_fGzL6YQzvzu0L-61" value="" style="rounded=0;whiteSpace=wrap;html=1;" vertex="1" parent="1">
          <mxGeometry x="550" y="290" width="40" height="40" as="geometry" />
        </mxCell>
        <mxCell id="99QOPK_fGzL6YQzvzu0L-62" value="" style="rounded=0;whiteSpace=wrap;html=1;" vertex="1" parent="1">
          <mxGeometry x="590" y="290" width="40" height="40" as="geometry" />
        </mxCell>
        <mxCell id="99QOPK_fGzL6YQzvzu0L-63" value="" style="rounded=0;whiteSpace=wrap;html=1;" vertex="1" parent="1">
          <mxGeometry x="630" y="290" width="40" height="40" as="geometry" />
        </mxCell>
        <mxCell id="99QOPK_fGzL6YQzvzu0L-64" value="" style="rounded=0;whiteSpace=wrap;html=1;" vertex="1" parent="1">
          <mxGeometry x="670" y="290" width="40" height="40" as="geometry" />
        </mxCell>
        <mxCell id="99QOPK_fGzL6YQzvzu0L-65" value="" style="rounded=0;whiteSpace=wrap;html=1;" vertex="1" parent="1">
          <mxGeometry x="710" y="290" width="40" height="40" as="geometry" />
        </mxCell>
      </root>
    </mxGraphModel>
  </diagram>
</mxfile>
